<svg xmlns="http://www.w3.org/2000/svg" viewBox="0 0 1182.74 627.32"><defs><style>.cls-1{fill:#777;}.cls-2{fill:#969696;}.cls-3{fill:#7f7f7f;}.cls-4{fill:#fff;}</style></defs><g id="Layer_2" data-name="Layer 2"><g id="Layer_1-2" data-name="Layer 1"><path class="cls-1" d="M717.49,170.13a70.84,70.84,0,0,1-20.21-2.94,6.41,6.41,0,1,1,3.65-12.29,57.86,57.86,0,0,0,25.29,1.74,56.63,56.63,0,0,0,23.85-9.52c3.89-2.79,14.27-10.19,13.37-14.85-.39-2.07-3.05-4.47-5.07-4.59-.48-.11-1,.46-3.18,2.48a61.9,61.9,0,0,1-7.75,6.37c-12.66,8.59-25.79,10.29-35.37,11.52a101.3,101.3,0,0,1-18,.71A6.42,6.42,0,0,1,688,142a6.57,6.57,0,0,1,6.73-6.08,87.67,87.67,0,0,0,15.7-.6c8.77-1.14,19.68-2.55,29.82-9.44a47,47,0,0,0,6.17-5.1c3.14-3,6.75-6.31,12.72-5.92,7.82.45,15.41,7.17,16.91,15,2.44,12.74-11.21,22.47-18.53,27.69a70.17,70.17,0,0,1-40,12.58Z"/><path class="cls-1" d="M748.46,206.61a6.38,6.38,0,0,1-3.77-1.23,23.56,23.56,0,0,1-8.33-11.12,24.16,24.16,0,0,1,1-18A6.41,6.41,0,1,1,749,181.64a11.41,11.41,0,0,0-.51,8.34,11,11,0,0,0,3.81,5,6.41,6.41,0,0,1-3.79,11.59Z"/><path class="cls-1" d="M721.87,206.61a6.41,6.41,0,0,1-6.32-5.4,38.52,38.52,0,0,1,0-12.77l.07-.36-.45-.08a23.17,23.17,0,0,0-8.18,0,6.41,6.41,0,1,1-2.18-12.64,36.67,36.67,0,0,1,12.67,0c5,.93,8.18,2.7,9.89,5.58,2,3.4,1.39,6.73,1,8.93l-.16.81a25.94,25.94,0,0,0,0,8.48,6.39,6.39,0,0,1-5.31,7.34A6,6,0,0,1,721.87,206.61Z"/><path class="cls-1" d="M769.74,201.29a6.39,6.39,0,0,1-5.35-2.88c-6.75-10.2-8.77-19.27-6-27,2.21-6.16,6.66-9,10.58-11.45a37.84,37.84,0,0,0,9.74-8.05c2.44-2.89,8.92-10.56,8.43-20.4-.58-11.67-10.94-19.07-12.12-19.88-10-6.82-21.47-4.81-24.73-4-4.87,1.17-7.56,3.09-11,5.54a47.93,47.93,0,0,1-15.61,8.08,56.57,56.57,0,0,1-25.67,1.38A6.41,6.41,0,1,1,700.16,110,43.83,43.83,0,0,0,720,109c5.43-1.62,8.39-3.75,11.81-6.21,3.82-2.74,8.14-5.85,15.47-7.6,4.56-1.09,20.55-3.86,34.92,5.91,2.81,1.91,16.84,12.35,17.71,29.83.73,14.9-8.44,25.75-11.45,29.31a50.53,50.53,0,0,1-12.69,10.62c-3.44,2.17-4.66,3-5.35,4.94-1.65,4.59,1.6,11,4.63,15.57a6.41,6.41,0,0,1-5.35,9.95Z"/><path class="cls-1" d="M791,190.65A6.41,6.41,0,0,1,787.4,179c2.37-1.62,23.14-16.54,23.79-42.72.58-23.47-14.83-41.49-30.36-48.93A54.45,54.45,0,0,0,750,82.85a56.77,56.77,0,0,0-13.2,4.39c-1.1.69-3.35,2-6.1,3.61-2.48,1.44-5.1,3-5.73,3.29-5.05,2.82-12,4-21.1,3.72a6.4,6.4,0,0,1-6.18-6.63,6.51,6.51,0,0,1,6.62-6.18c8.31.29,12.43-1,14.47-2.14.63-.33,3.12-1.77,5.47-3.14,2.69-1.56,4.89-2.87,6.37-3.75a68.24,68.24,0,0,1,17-5.78,67.52,67.52,0,0,1,38.74,5.5c19.26,9.23,38.36,31.61,37.63,60.8-.8,32.57-26.46,51-29.38,53A6.38,6.38,0,0,1,791,190.65Z"/><path class="cls-1" d="M833.55,116.2a6.42,6.42,0,0,1-6.14-4.55c-2.14-7.12-11.16-31.25-37.13-43.28-32.26-14.94-62.13,2-65.44,4a6.41,6.41,0,1,1-6.59-11c3.89-2.33,39.2-22.37,77.42-4.66,30.81,14.27,41.48,42.79,44,51.2a6.42,6.42,0,0,1-4.28,8A6.75,6.75,0,0,1,833.55,116.2Z"/><path class="cls-1" d="M173.75,52.71q0,29.22-28.43,41.5Q163.6,101,172.55,113t8.94,29.43q0,58.71-88.08,58.71H0V166.94H24.82V34.16H0V0H93.41q40.71,0,60.52,13.08T173.75,52.71Zm-52.18,2.67q0-11.75-8.48-16.48T89.28,34.16H77V79.53H93.15q14.26,0,21.35-5.47T121.57,55.38Zm6.27,85.54q0-14.68-8.47-21.09t-29.16-6.4H77v53.51H97.55q13.88,0,22.09-6.27T127.84,140.92Z"/><path class="cls-1" d="M356,140.39H251.41q1.6,16.14,11.14,25.55t24.63,9.41q16.68,0,32.56-16.55L354.43,170Q343,187.23,326,195.84t-40.17,8.6q-23.22,0-41-8.74a65.33,65.33,0,0,1-27.63-24.76q-9.8-16-9.8-37.63a74.86,74.86,0,0,1,10.21-38.7,73.15,73.15,0,0,1,27.62-27.15A75.79,75.79,0,0,1,283,57.65q22.15,0,38.57,10.21t25.28,29Q355.77,115.57,356,140.39Zm-75.13-53q-12,0-19.28,6.94t-9.14,21.21h58.45Q309.06,103,300.72,95.22A28,28,0,0,0,280.9,87.41Z"/><path class="cls-1" d="M542.33,168.81V201.1H474.94V184.42q-19.23,18.83-40.84,18.82a53.29,53.29,0,0,1-31.36-9.54q-13.61-9.54-21.29-26.22a87.85,87.85,0,0,1-7.67-37.1q0-21.09,7.67-37.63t21.69-25.82a55.3,55.3,0,0,1,31.23-9.28q24.69,0,40.57,19.08V32.16H452.78V0h66.59V168.81Zm-95-.8q13.08,0,20.49-10.34t7.4-26.76q0-16.41-7.54-26.82T447.05,93.68a23.57,23.57,0,0,0-20.16,10.41q-7.47,10.41-7.47,26.55,0,16.29,7.47,26.83A23.74,23.74,0,0,0,447.31,168Z"/><path class="cls-1" d="M675.24,59.25v42q-18.42,1.2-29.3,5.8a33.53,33.53,0,0,0-16.81,15.81q-5.94,11.22-5.94,32v13.88h27.89V201.1H552.73V168.81h25.76V93.68H554.07V60.85h65.39V96.48a53.78,53.78,0,0,1,18.28-26.82Q651.09,59,670.83,59A26.48,26.48,0,0,1,675.24,59.25Z"/><path class="cls-1" d="M963.62,72.59V60.85h30.56V117.7H962.55q-11.2-23.22-34.16-23.22a29.64,29.64,0,0,0-23.15,10.28q-9.15,10.27-9.15,25.62,0,17,8.74,27.82t23.29,10.88a37.37,37.37,0,0,0,20-5.88,45,45,0,0,0,15.48-16.54L998.31,162q-11.47,21.63-27.62,32t-43.5,10.41q-35.51,0-56.25-19.42t-20.75-53.84q0-20.55,9.54-37A70.4,70.4,0,0,1,921.18,59Q943.34,59,963.62,72.59Z"/><path class="cls-1" d="M1095.06,170.28V201.1h-84.2V168.81h22.42V32.16h-22.42V0h67.25V170.28Zm1.34-109.43h84.73V89.28h-13.87l-41.37,35.09,37.5,44.44h19.35V201.1h-44.58L1078.38,127l47.51-39.1H1096.4Z"/><path class="cls-2" d="M.42,529,182,599.22h-.05l283.51-7.94,136.77,36,229.25-14.05,143.27-42.15h162.38q22.83-69,45.64-138.07V212.88H0V445.4Z"/><path class="cls-1" d="M349,399.7l315.8-85.32L1006.13,479.8l176.61-173.22v-93.7H0v73.4Z"/><path class="cls-3" d="M171.32,537.13,514,494.18l88.83,133.14L1008.2,480.91,664.78,314.38,341.05,395.32,0,286.28v44.3Z"/><path class="cls-1" d="M1006.13,479.8l-31.42,91.32H759.8Z"/><path class="cls-2" d="M664.78,314.38,511.45,493.85l-170.4-98.53Z"/><path class="cls-1" d="M511.45,493.85,463.69,592.2,172.36,536Z"/><path class="cls-1" d="M0,529l171.26,7L0,325.27Z"/><path class="cls-3" d="M1006.13,479.8l128.44,91.32,48.16-140.49Z"/><path class="cls-4" d="M460.57,253.7v5h-5.21v15a5.94,5.94,0,0,0,.5,3,2,2,0,0,0,1.73.69,9.23,9.23,0,0,0,3-.52V282a15.48,15.48,0,0,1-4.21.77q-3.54,0-5.08-1.77t-1.56-6.1V258.73H446v-5h3.72V249.4l5.61-5.14v9.45Z"/><path class="cls-4" d="M476,270.76v6.47h6.22v5H464.66v-5h5.72V258.71h-5.73v-5h10.18v6.46a11.29,11.29,0,0,1,4.25-5.34,14.28,14.28,0,0,1,7.26-1.51h1.28V259h-1.22c-3,0-5.3.4-6.79,1.2a5.85,5.85,0,0,0-2.94,3.62A25.84,25.84,0,0,0,476,270.76Z"/><path class="cls-4" d="M504.65,277.8c2.52,0,5.25-1.23,8.18-3.68l0-15.45h-5v-5h10.67l0,23.55h4.89v5H512.83V278.9q-4.94,3.78-9.39,3.79c-2.68,0-4.66-.79-5.94-2.39s-1.91-4.23-1.92-7.92V258.69h-4v-5h9.62l0,19.87a5.19,5.19,0,0,0,.8,3.22A3.13,3.13,0,0,0,504.65,277.8Z"/><path class="cls-4" d="M545.06,254.85v-1.23H550v9.47h-4.89v-1.74a7.73,7.73,0,0,0-6.68-3.5,6.32,6.32,0,0,0-3.65,1,3,3,0,0,0-1.41,2.53,2.57,2.57,0,0,0,1.08,2.17c.72.53,2.33,1,4.82,1.38l3.78.73c5.62,1,8.45,3.79,8.45,8.27a7.62,7.62,0,0,1-3.05,6.33,12.74,12.74,0,0,1-8.1,2.4,13.59,13.59,0,0,1-3.95-.58,12.12,12.12,0,0,1-3.25-1.45v1.55h-5V272.4h5v1a5,5,0,0,0,2.29,3.31,7.79,7.79,0,0,0,4.39,1.25,8.34,8.34,0,0,0,4.31-1,3.15,3.15,0,0,0,1.58-2.87,2.23,2.23,0,0,0-1.26-2.07,19.54,19.54,0,0,0-5-1.42l-2.91-.63a11.73,11.73,0,0,1-6.33-3,7.51,7.51,0,0,1-2-5.4,7.16,7.16,0,0,1,1.48-4.55,9,9,0,0,1,3.78-2.84,12.43,12.43,0,0,1,4.75-.95A13.57,13.57,0,0,1,545.06,254.85Z"/><path class="cls-4" d="M571.07,253.6v5h-5.22l0,15a5.92,5.92,0,0,0,.5,3,2,2,0,0,0,1.73.69,9.26,9.26,0,0,0,3-.51v5.07a16.23,16.23,0,0,1-4.21.77c-2.35,0-4-.6-5.08-1.78s-1.55-3.21-1.55-6.09l0-16.13h-3.72v-5h3.72v-4.32l5.62-5.14v9.45Z"/><path class="cls-4" d="M606.19,269.26l-23.92,0a10,10,0,0,0,3.18,6.47,9.47,9.47,0,0,0,6.52,2.37,11.87,11.87,0,0,0,5.24-1.17,10.19,10.19,0,0,0,4-3.59l5,2.22a15.16,15.16,0,0,1-6.12,5.51,18.42,18.42,0,0,1-8.24,1.87,17.09,17.09,0,0,1-8.2-1.92,13.94,13.94,0,0,1-5.58-5.37,15.15,15.15,0,0,1-2-7.77,15.36,15.36,0,0,1,2-7.74,14.21,14.21,0,0,1,5.38-5.39,15,15,0,0,1,7.55-2,15.15,15.15,0,0,1,7.86,2,14,14,0,0,1,5.29,5.7A20.17,20.17,0,0,1,606.19,269.26Zm-15.13-11.77a8.12,8.12,0,0,0-5.57,2.13,9.85,9.85,0,0,0-3.06,5.64H600.3a10,10,0,0,0-3.35-5.64A9,9,0,0,0,591.06,257.49Z"/><path class="cls-4" d="M646.46,277.06v5H635.74v-4.18a13.65,13.65,0,0,1-22.44-2.53,16.51,16.51,0,0,1,.1-15,14.4,14.4,0,0,1,5.14-5.53,13.15,13.15,0,0,1,7.11-2.05,12.75,12.75,0,0,1,5.26,1.1,16.06,16.06,0,0,1,4.82,3.5v-11.3H630.2v-4.94h11.08l0,35.92Zm-19.9.52a8.3,8.3,0,0,0,4.7-1.4,9.6,9.6,0,0,0,3.28-3.69,10.7,10.7,0,0,0,1.19-4.95,10,10,0,0,0-1.2-4.85,9,9,0,0,0-3.32-3.48,9.15,9.15,0,0,0-4.77-1.27,8,8,0,0,0-4.6,1.38,9.62,9.62,0,0,0-3.19,3.64,10.89,10.89,0,0,0,0,9.84,9.12,9.12,0,0,0,3.27,3.5A8.58,8.58,0,0,0,626.56,277.58Z"/><path class="cls-4" d="M701.47,277v5H690.75v-4.19a13.43,13.43,0,0,1-10.22,4.69,13.62,13.62,0,0,1-7.3-1.94,13.39,13.39,0,0,1-4.92-5.28,16.51,16.51,0,0,1,.1-15,14.5,14.5,0,0,1,5.13-5.52,13.31,13.31,0,0,1,7.12-2.06,12.76,12.76,0,0,1,5.26,1.11,16.06,16.06,0,0,1,4.82,3.5V246H685.2v-5h11.08l0,35.93Zm-19.9.51a8.33,8.33,0,0,0,4.69-1.39,9.55,9.55,0,0,0,3.29-3.69,10.73,10.73,0,0,0,1.19-4.95,10,10,0,0,0-1.2-4.85,9,9,0,0,0-8.1-4.75,8,8,0,0,0-4.6,1.38,9.45,9.45,0,0,0-3.18,3.64,10.89,10.89,0,0,0,0,9.84,9.17,9.17,0,0,0,3.26,3.5A8.63,8.63,0,0,0,681.57,277.52Z"/><path class="cls-4" d="M729.67,263.52V277h4.78v5h-9.72v-3.51a12.68,12.68,0,0,1-9.06,4,9.79,9.79,0,0,1-4.83-1.22,9.9,9.9,0,0,1-3.5-3.27,8.57,8.57,0,0,1,.13-9.34,9.36,9.36,0,0,1,3.92-3.25,11.76,11.76,0,0,1,5-1.14,13.63,13.63,0,0,1,7.79,2.43v-3.07c0-2.22-.48-3.82-1.42-4.77s-2.49-1.44-4.64-1.44a8,8,0,0,0-3.82.83,6.64,6.64,0,0,0-2.54,2.51l-5.37-1.32a12,12,0,0,1,4.91-5.06,15.07,15.07,0,0,1,7.36-1.68q5.73,0,8.37,2.59C728.78,257,729.66,259.77,729.67,263.52Zm-13.24,14.65a11.13,11.13,0,0,0,7.74-3.46v-3.34a11.85,11.85,0,0,0-7.33-2.84,5.65,5.65,0,0,0-3.84,1.4,4.69,4.69,0,0,0-.2,6.89A5.06,5.06,0,0,0,716.43,278.17Z"/><path class="cls-4" d="M753,253.42v5H747.8l0,15a5.83,5.83,0,0,0,.5,3,2,2,0,0,0,1.72.69,9.18,9.18,0,0,0,3-.52v5.08a15.8,15.8,0,0,1-4.21.76q-3.54,0-5.08-1.77c-1-1.19-1.56-3.22-1.56-6.1V258.45h-3.72v-5h3.72v-4.31l5.61-5.14v9.45Z"/><path class="cls-4" d="M782.29,263.47v13.47h4.78v5h-9.73v-3.51a12.63,12.63,0,0,1-9.06,4,9.68,9.68,0,0,1-4.83-1.21A9.9,9.9,0,0,1,760,278a8.57,8.57,0,0,1,.13-9.34,9.43,9.43,0,0,1,3.92-3.25,11.78,11.78,0,0,1,5-1.15,13.64,13.64,0,0,1,7.79,2.44v-3.07q0-3.33-1.42-4.78t-4.64-1.43a7.84,7.84,0,0,0-3.81.84,6.41,6.41,0,0,0-2.54,2.5L759,259.39a12.09,12.09,0,0,1,4.91-5.07,15.3,15.3,0,0,1,7.36-1.67c3.82,0,6.61.86,8.37,2.59S782.29,259.72,782.29,263.47Zm-13.24,14.64a11.08,11.08,0,0,0,7.74-3.45v-3.34a11.91,11.91,0,0,0-7.32-2.84,5.71,5.71,0,0,0-3.85,1.4,4.69,4.69,0,0,0-.2,6.89A5.05,5.05,0,0,0,769.05,278.11Z"/><path class="cls-4" d="M826.15,246.7l-5,.77c-.16-1.85-.87-2.77-2.12-2.77a1.75,1.75,0,0,0-1.77,1,8.84,8.84,0,0,0-.45,3.4v4.31h4.89v5h-4.89v18.52h5.38v5H807v-5h4.19l0-18.52H807v-5h4.19v-4.43a10,10,0,0,1,1.91-6.36,6.8,6.8,0,0,1,5.66-2.45,7.35,7.35,0,0,1,5,1.64A7.94,7.94,0,0,1,826.15,246.7Z"/><path class="cls-4" d="M856.2,267.63a15,15,0,0,1-2,7.61,14.8,14.8,0,0,1-13,7.48,15.18,15.18,0,0,1-7.74-2,14.22,14.22,0,0,1-5.37-5.46,15.43,15.43,0,0,1-1.92-7.6,15.85,15.85,0,0,1,1.9-7.77,13.89,13.89,0,0,1,5.34-5.36,15.4,15.4,0,0,1,7.76-1.95,14.51,14.51,0,0,1,7.63,2,14.83,14.83,0,0,1,5.38,5.49A15.05,15.05,0,0,1,856.2,267.63Zm-15,9.63a8.49,8.49,0,0,0,4.59-1.31,9,9,0,0,0,3.25-3.5,10.09,10.09,0,0,0,1.17-4.81,10,10,0,0,0-1.17-4.75,9.48,9.48,0,0,0-3.26-3.54,8.69,8.69,0,0,0-9.24,0,9.27,9.27,0,0,0-3.28,3.55,10.16,10.16,0,0,0,0,9.56,9.28,9.28,0,0,0,3.32,3.52A8.62,8.62,0,0,0,841.24,277.26Z"/><path class="cls-4" d="M872,270.39v6.46h6.22v5l-17.51,0v-5h5.72V258.34h-5.73v-5h10.18v6.46a11.28,11.28,0,0,1,4.25-5.34,14.39,14.39,0,0,1,7.26-1.51h1.28v5.67h-1.22q-4.57,0-6.79,1.2a5.83,5.83,0,0,0-2.94,3.61A25.92,25.92,0,0,0,872,270.39Z"/><path class="cls-4" d="M923.87,252.5a13.11,13.11,0,0,1,7.12,2,13.9,13.9,0,0,1,5,5.38,15.55,15.55,0,0,1,1.78,7.34,16,16,0,0,1-1.8,7.52,14.34,14.34,0,0,1-5,5.5,12.82,12.82,0,0,1-7.11,2.06,14.34,14.34,0,0,1-5.94-1.27,10.94,10.94,0,0,1-4.42-3.5v4.29H903v-5h5l0-31h-5V240.9h10.51l0,16.45A13.43,13.43,0,0,1,923.87,252.5Zm-1.15,24.79a8.18,8.18,0,0,0,4.76-1.44,9.61,9.61,0,0,0,3.22-3.78,11.15,11.15,0,0,0,1.14-5,9.92,9.92,0,0,0-1.17-4.78,8.87,8.87,0,0,0-3.24-3.44,8.68,8.68,0,0,0-4.66-1.28,8.53,8.53,0,0,0-4.68,1.34,9.16,9.16,0,0,0-3.22,3.61,10.88,10.88,0,0,0-1.16,5.08,10.11,10.11,0,0,0,1.19,4.89,9.12,9.12,0,0,0,3.27,3.5A8.38,8.38,0,0,0,922.72,277.29Z"/><path class="cls-4" d="M955.88,277.36c2.51,0,5.24-1.22,8.17-3.67l0-15.45h-5v-5h10.67l0,23.54h4.89v5H964.05v-3.29c-3.29,2.53-6.42,3.78-9.39,3.79q-4,0-5.93-2.39T946.8,272V258.26h-4v-5h9.62l0,19.88a5.24,5.24,0,0,0,.8,3.23A3.1,3.1,0,0,0,955.88,277.36Z"/><path class="cls-4" d="M996.28,254.41v-1.22h4.89v9.47h-4.89v-1.73a7.71,7.71,0,0,0-6.68-3.5,6.34,6.34,0,0,0-3.64,1,3,3,0,0,0-1.42,2.53,2.58,2.58,0,0,0,1.08,2.17q1.08.79,4.83,1.38l3.77.73q8.44,1.54,8.45,8.28a7.64,7.64,0,0,1-3,6.33,12.78,12.78,0,0,1-8.1,2.39,13.59,13.59,0,0,1-3.95-.58,12.12,12.12,0,0,1-3.25-1.45v1.55h-5V272h5v1a5.06,5.06,0,0,0,2.29,3.31A7.71,7.71,0,0,0,991,277.5a8.21,8.21,0,0,0,4.31-1,3.16,3.16,0,0,0,1.58-2.87,2.26,2.26,0,0,0-1.25-2.08,20.35,20.35,0,0,0-5-1.41l-2.9-.62a11.73,11.73,0,0,1-6.34-3,7.56,7.56,0,0,1-2-5.4,7.15,7.15,0,0,1,1.48-4.54,9,9,0,0,1,3.78-2.85,12.44,12.44,0,0,1,4.76-1A13.64,13.64,0,0,1,996.28,254.41Z"/><path class="cls-4" d="M1021.72,276.71v5h-14.41v-5h4.45V258.2h-4.46v-5h10.07l0,23.54Zm-4.05-33.15a3.43,3.43,0,0,1-3.39,3.4,3.16,3.16,0,0,1-2.36-1,3.27,3.27,0,0,1-1-2.39,3.32,3.32,0,0,1,1-2.39,3.17,3.17,0,0,1,2.36-1,3.33,3.33,0,0,1,3.4,3.39Z"/><path class="cls-4" d="M1053.34,262.48v14.2h4.77v5h-10.4V262.84a7.31,7.31,0,0,0-.78-3.86,2.83,2.83,0,0,0-2.54-1.17q-3.75,0-8.42,3.71l0,15.18h4.91v5h-15.48v-5h5l0-18.52h-5v-5H1036v3.45c3.49-2.56,6.78-3.83,9.85-3.84,2.55,0,4.44.78,5.66,2.36S1053.33,259.15,1053.34,262.48Z"/><path class="cls-4" d="M1092.55,268.8l-23.92,0a10,10,0,0,0,3.18,6.47,9.38,9.38,0,0,0,6.52,2.36,11.66,11.66,0,0,0,5.23-1.17,10.11,10.11,0,0,0,4-3.58l4.94,2.22a15,15,0,0,1-6.12,5.51,18.55,18.55,0,0,1-8.24,1.86,16.93,16.93,0,0,1-8.19-1.92,13.84,13.84,0,0,1-5.59-5.37,16.16,16.16,0,0,1,0-15.5,14.17,14.17,0,0,1,5.38-5.4,16.05,16.05,0,0,1,15.41,0,14,14,0,0,1,5.28,5.7A20.14,20.14,0,0,1,1092.55,268.8ZM1077.41,257a8.16,8.16,0,0,0-5.56,2.14,9.8,9.8,0,0,0-3.07,5.64l17.87,0a9.94,9.94,0,0,0-3.35-5.63A8.91,8.91,0,0,0,1077.41,257Z"/><path class="cls-4" d="M1115.18,254.3v-1.22h4.88v9.48h-4.88v-1.73a7.7,7.7,0,0,0-6.68-3.5,6.28,6.28,0,0,0-3.64,1,3,3,0,0,0-1.41,2.53,2.55,2.55,0,0,0,1.08,2.17q1.07.78,4.82,1.38l3.77.73q8.45,1.54,8.46,8.27a7.64,7.64,0,0,1-3,6.33,12.77,12.77,0,0,1-8.11,2.4,13.59,13.59,0,0,1-4-.58,12.19,12.19,0,0,1-3.24-1.45v1.55h-5v-9.77h5v1a5.09,5.09,0,0,0,2.29,3.31,7.82,7.82,0,0,0,4.39,1.25,8.38,8.38,0,0,0,4.32-1,3.16,3.16,0,0,0,1.57-2.87,2.26,2.26,0,0,0-1.25-2.08,20.23,20.23,0,0,0-5-1.41l-2.91-.63a11.69,11.69,0,0,1-6.33-3,7.57,7.57,0,0,1-2-5.4,7.2,7.2,0,0,1,1.48-4.55,9.06,9.06,0,0,1,3.79-2.84,12.24,12.24,0,0,1,4.75-.95A13.6,13.6,0,0,1,1115.18,254.3Z"/><path class="cls-4" d="M1144.2,254.27v-1.22h4.89v9.47h-4.89v-1.73a7.68,7.68,0,0,0-6.68-3.49,6.26,6.26,0,0,0-3.64,1,3,3,0,0,0-1.42,2.53,2.58,2.58,0,0,0,1.08,2.17q1.08.79,4.83,1.38l3.77.73q8.44,1.55,8.46,8.28a7.62,7.62,0,0,1-3.06,6.32,12.72,12.72,0,0,1-8.1,2.4,13.59,13.59,0,0,1-4-.58,12.12,12.12,0,0,1-3.25-1.45v1.55h-5v-9.77h5v1a5,5,0,0,0,2.29,3.31,7.71,7.71,0,0,0,4.39,1.24,8.22,8.22,0,0,0,4.31-1,3.16,3.16,0,0,0,1.58-2.87,2.23,2.23,0,0,0-1.25-2.07,19.79,19.79,0,0,0-5-1.42l-2.9-.63a11.79,11.79,0,0,1-6.34-3,7.56,7.56,0,0,1-2-5.4,7.18,7.18,0,0,1,1.48-4.55,9.17,9.17,0,0,1,3.78-2.84,12.44,12.44,0,0,1,4.76-.95A13.64,13.64,0,0,1,1144.2,254.27Z"/></g></g></svg>