<svg xmlns="http://www.w3.org/2000/svg" viewBox="0 0 1182.74 206.61"><defs><style>.cls-1{fill:#fff;}</style></defs><g id="Layer_2" data-name="Layer 2"><g id="Layer_1-2" data-name="Layer 1"><path class="cls-1" d="M717.49,170.13a70.84,70.84,0,0,1-20.21-2.94,6.41,6.41,0,1,1,3.65-12.29,57.86,57.86,0,0,0,25.29,1.74,56.63,56.63,0,0,0,23.85-9.52c3.89-2.79,14.27-10.19,13.37-14.85-.39-2.07-3.05-4.47-5.07-4.59-.48-.11-1,.46-3.18,2.48a61.9,61.9,0,0,1-7.75,6.37c-12.66,8.59-25.79,10.29-35.37,11.52a101.3,101.3,0,0,1-18,.71A6.42,6.42,0,0,1,688,142a6.57,6.57,0,0,1,6.73-6.08,87.67,87.67,0,0,0,15.7-.6c8.77-1.14,19.68-2.55,29.82-9.44a47,47,0,0,0,6.17-5.1c3.14-3,6.75-6.31,12.72-5.92,7.82.45,15.41,7.17,16.91,15,2.44,12.74-11.21,22.47-18.53,27.69a70.17,70.17,0,0,1-40,12.58Z"/><path class="cls-1" d="M748.46,206.61a6.38,6.38,0,0,1-3.77-1.23,23.56,23.56,0,0,1-8.33-11.12,24.16,24.16,0,0,1,1-18A6.41,6.41,0,1,1,749,181.64a11.41,11.41,0,0,0-.51,8.34,11,11,0,0,0,3.81,5,6.41,6.41,0,0,1-3.79,11.59Z"/><path class="cls-1" d="M721.87,206.61a6.41,6.41,0,0,1-6.32-5.4,38.52,38.52,0,0,1,0-12.77l.07-.36-.45-.08a23.17,23.17,0,0,0-8.18,0,6.41,6.41,0,1,1-2.18-12.64,36.67,36.67,0,0,1,12.67,0c5,.93,8.18,2.7,9.89,5.58,2,3.4,1.39,6.73,1,8.93l-.16.81a25.94,25.94,0,0,0,0,8.48,6.39,6.39,0,0,1-5.31,7.34A6,6,0,0,1,721.87,206.61Z"/><path class="cls-1" d="M769.74,201.29a6.39,6.39,0,0,1-5.35-2.88c-6.75-10.2-8.77-19.27-6-27,2.21-6.16,6.66-9,10.58-11.45a37.84,37.84,0,0,0,9.74-8.05c2.44-2.89,8.92-10.56,8.43-20.4-.58-11.67-10.94-19.07-12.12-19.88-10-6.82-21.47-4.81-24.73-4-4.87,1.17-7.56,3.09-11,5.54a47.93,47.93,0,0,1-15.61,8.08,56.57,56.57,0,0,1-25.67,1.38A6.41,6.41,0,1,1,700.16,110,43.83,43.83,0,0,0,720,109c5.43-1.62,8.39-3.75,11.81-6.21,3.82-2.74,8.14-5.85,15.47-7.6,4.56-1.09,20.55-3.86,34.92,5.91,2.81,1.91,16.84,12.35,17.71,29.83.73,14.9-8.44,25.75-11.45,29.31a50.53,50.53,0,0,1-12.69,10.62c-3.44,2.17-4.66,3-5.35,4.94-1.65,4.59,1.6,11,4.63,15.57a6.41,6.41,0,0,1-5.35,9.95Z"/><path class="cls-1" d="M791,190.65A6.41,6.41,0,0,1,787.4,179c2.37-1.62,23.14-16.54,23.79-42.72.58-23.47-14.83-41.49-30.36-48.93A54.45,54.45,0,0,0,750,82.85a56.77,56.77,0,0,0-13.2,4.39c-1.1.69-3.35,2-6.1,3.61-2.48,1.44-5.1,3-5.73,3.29-5.05,2.82-12,4-21.1,3.72a6.4,6.4,0,0,1-6.18-6.63,6.51,6.51,0,0,1,6.62-6.18c8.31.29,12.43-1,14.47-2.14.63-.33,3.12-1.77,5.47-3.14,2.69-1.56,4.89-2.87,6.37-3.75a68.24,68.24,0,0,1,17-5.78,67.52,67.52,0,0,1,38.74,5.5c19.26,9.23,38.36,31.61,37.63,60.8-.8,32.57-26.46,51-29.38,53A6.38,6.38,0,0,1,791,190.65Z"/><path class="cls-1" d="M833.55,116.2a6.42,6.42,0,0,1-6.14-4.55c-2.14-7.12-11.16-31.25-37.13-43.28-32.26-14.94-62.13,2-65.44,4a6.41,6.41,0,1,1-6.59-11c3.89-2.33,39.2-22.37,77.42-4.66,30.81,14.27,41.48,42.79,44,51.2a6.42,6.42,0,0,1-4.28,8A6.75,6.75,0,0,1,833.55,116.2Z"/><path class="cls-1" d="M173.75,52.71q0,29.22-28.43,41.5Q163.6,101,172.55,113t8.94,29.43q0,58.71-88.08,58.71H0V166.94H24.82V34.16H0V0H93.41q40.71,0,60.52,13.08T173.75,52.71Zm-52.18,2.67q0-11.75-8.48-16.48T89.28,34.16H77V79.53H93.15q14.26,0,21.35-5.47T121.57,55.38Zm6.27,85.54q0-14.68-8.47-21.09t-29.16-6.4H77v53.51H97.55q13.88,0,22.09-6.27T127.84,140.92Z"/><path class="cls-1" d="M356,140.39H251.41q1.6,16.14,11.14,25.55t24.63,9.41q16.68,0,32.56-16.55L354.43,170Q343,187.23,326,195.84t-40.17,8.6q-23.22,0-41-8.74a65.33,65.33,0,0,1-27.63-24.76q-9.8-16-9.8-37.63a74.86,74.86,0,0,1,10.21-38.7,73.15,73.15,0,0,1,27.62-27.15A75.79,75.79,0,0,1,283,57.65q22.15,0,38.57,10.21t25.28,29Q355.77,115.57,356,140.39Zm-75.13-53q-12,0-19.28,6.94t-9.14,21.21h58.45Q309.06,103,300.72,95.22A28,28,0,0,0,280.9,87.41Z"/><path class="cls-1" d="M542.33,168.81V201.1H474.94V184.42q-19.23,18.83-40.84,18.82a53.29,53.29,0,0,1-31.36-9.54q-13.61-9.54-21.29-26.22a87.85,87.85,0,0,1-7.67-37.1q0-21.09,7.67-37.63t21.69-25.82a55.3,55.3,0,0,1,31.23-9.28q24.69,0,40.57,19.08V32.16H452.78V0h66.59V168.81Zm-95-.8q13.08,0,20.49-10.34t7.4-26.76q0-16.41-7.54-26.82T447.05,93.68a23.57,23.57,0,0,0-20.16,10.41q-7.47,10.41-7.47,26.55,0,16.29,7.47,26.83A23.74,23.74,0,0,0,447.31,168Z"/><path class="cls-1" d="M675.24,59.25v42q-18.42,1.2-29.3,5.8a33.53,33.53,0,0,0-16.81,15.81q-5.94,11.22-5.94,32v13.88h27.89V201.1H552.73V168.81h25.76V93.68H554.07V60.85h65.39V96.48a53.78,53.78,0,0,1,18.28-26.82Q651.09,59,670.83,59A26.48,26.48,0,0,1,675.24,59.25Z"/><path class="cls-1" d="M963.62,72.59V60.85h30.56V117.7H962.55q-11.2-23.22-34.16-23.22a29.64,29.64,0,0,0-23.15,10.28q-9.15,10.27-9.15,25.62,0,17,8.74,27.82t23.29,10.88a37.37,37.37,0,0,0,20-5.88,45,45,0,0,0,15.48-16.54L998.31,162q-11.47,21.63-27.62,32t-43.5,10.41q-35.51,0-56.25-19.42t-20.75-53.84q0-20.55,9.54-37A70.4,70.4,0,0,1,921.18,59Q943.34,59,963.62,72.59Z"/><path class="cls-1" d="M1095.06,170.28V201.1h-84.2V168.81h22.42V32.16h-22.42V0h67.25V170.28Zm1.34-109.43h84.73V89.28h-13.87l-41.37,35.09,37.5,44.44h19.35V201.1h-44.58L1078.38,127l47.51-39.1H1096.4Z"/></g></g></svg>